<svg id="visual" viewBox="0 0 960 540" width="960" height="540" xmlns="http://www.w3.org/2000/svg" xmlns:xlink="http://www.w3.org/1999/xlink" version="1.1"><path d="M141 0L127.3 9C113.7 18 86.3 36 78.5 54C70.7 72 82.3 90 96.2 108C110 126 126 144 134.2 162C142.3 180 142.7 198 131.2 216C119.7 234 96.3 252 88.7 270C81 288 89 306 99.2 324C109.3 342 121.7 360 114 378C106.3 396 78.7 414 75 432C71.3 450 91.7 468 102.3 486C113 504 114 522 114.5 531L115 540L0 540L0 531C0 522 0 504 0 486C0 468 0 450 0 432C0 414 0 396 0 378C0 360 0 342 0 324C0 306 0 288 0 270C0 252 0 234 0 216C0 198 0 180 0 162C0 144 0 126 0 108C0 90 0 72 0 54C0 36 0 18 0 9L0 0Z" fill="#2D3A58" stroke-linecap="round" stroke-linejoin="miter"></path></svg>