<svg id="visual" viewBox="0 0 960 540" width="960" height="540" xmlns="http://www.w3.org/2000/svg" xmlns:xlink="http://www.w3.org/1999/xlink" version="1.1"><path d="M0 460L16 467.7C32 475.3 64 490.7 96 495.2C128 499.7 160 493.3 192 485.7C224 478 256 469 288 464.3C320 459.7 352 459.3 384 465.7C416 472 448 485 480 489.3C512 493.7 544 489.3 576 483.7C608 478 640 471 672 475.3C704 479.7 736 495.3 768 497.5C800 499.7 832 488.3 864 482.3C896 476.3 928 475.7 944 475.3L960 475L960 541L944 541C928 541 896 541 864 541C832 541 800 541 768 541C736 541 704 541 672 541C640 541 608 541 576 541C544 541 512 541 480 541C448 541 416 541 384 541C352 541 320 541 288 541C256 541 224 541 192 541C160 541 128 541 96 541C64 541 32 541 16 541L0 541Z" fill="#0066FF" stroke-linecap="round" stroke-linejoin="miter"></path></svg>